<?xml version="1.0" encoding="utf-8"?>
<!-- Generator: Adobe Illustrator 16.0.0, SVG Export Plug-In . SVG Version: 6.00 Build 0)  -->
<!DOCTYPE svg PUBLIC "-//W3C//DTD SVG 1.1//EN" "http://www.w3.org/Graphics/SVG/1.1/DTD/svg11.dtd">
<svg version="1.1" id="Layer_1" xmlns="http://www.w3.org/2000/svg" xmlns:xlink="http://www.w3.org/1999/xlink" x="0px" y="0px"
	 width="306.972px" height="80.743px" viewBox="0 0 306.972 80.743" enable-background="new 0 0 306.972 80.743"
	 xml:space="preserve">
<g>
	<path fill="#524E4C" d="M56.947,69.827c1.627,0,3.084-0.758,4.303-2.152c1.224-1.281,3.201,0.523,1.979,1.86
		c-1.569,1.744-3.722,3.029-6.282,3.029c-5.525,0-10.763-5.068-10.821-10.655c-0.116-6.339,8.727-6.107,8.494,0.466
		c-0.116,2.563-1.163,4.716-2.035,6.055C53.804,69.246,55.317,69.827,56.947,69.827 M50.665,66.451
		c0.696-1.281,1.163-2.91,1.163-4.191c0.173-4.303-6.051-2.153-1.224,4.191H50.665z"/>
	<path fill="#524E4C" d="M68.116,69.943c1.745,0,3.839-0.989,4.943-2.269c0.35-0.292,0.641-0.407,0.991-0.407
		c0.756,0,1.396,0.639,1.396,1.396c0,0.29-0.06,0.521-0.407,0.871c-1.805,1.806-4.422,3.145-6.923,3.145
		c-6.168,0-10.474-9.373-10.474-14.957c0-3.78,1.047-12.159,5.934-12.159c4.363,0,4.888,7.447,4.888,9.889
		c0,4.076-0.989,8.847-3.723,12.746C65.845,69.303,67.008,69.943,68.116,69.943 M65.787,55.338c0-2.91-0.932-6.98-2.326-6.98
		c-0.989,0-1.862,1.803-2.385,3.312c-0.525,1.689-0.758,3.376-0.758,5.121c0,3.199,0.874,6.46,2.618,9.133
		C64.68,63.017,65.787,59.062,65.787,55.338"/>
	<path fill="#524E4C" d="M205.801,51.031c0.061,3.55-0.521,7.971-0.813,12.275c-0.523,8.904,0.466,15.188,8.496,14.668
		c1.804-0.116,2.035,2.615,0.173,2.73c-20.711,1.34-5.7-33.162-12.508-34.907c-4.42-1.107-7.39,7.447-7.914,10.528
		c-0.406,5.76-1.452,11.114-2.035,13.617c-0.406,1.805-3.14,1.163-2.674-0.64c0,0,1.688-7.275,2.035-14.723
		c0.173-3.781,0.347-14.022-5.179-14.774c-6.923-0.876-10.062,9.83-10.587,14.948c0.115,5.354-0.117,10.591-0.641,15.072
		c-0.231,1.803-2.85,1.452-2.734-0.35c0,0,0.582-4.831,0.643-11.347c0-6.573-0.526-14.662-2.62-21.292
		c-3.142-9.657-15.303-12.102-23.213-6.691c-8.436,5.76-11.693,18.093-0.755,25.305c1.512,1.05,0,3.318-1.515,2.329
		c-13.205-8.786-8.666-23.503,0.697-29.902c9.077-6.168,23.564-3.724,27.406,8.144c0.929,2.968,1.624,6.46,2.092,10.181
		c2.096-5.236,5.817-9.831,11.634-9.072c4.831,0.636,6.808,5.352,7.391,11.17C197.716,40.677,205.687,40.559,205.801,51.031"/>
	<path fill="#524E4C" d="M230.747,67.674c1.221-1.281,3.256,0.523,1.979,1.86c-4.423,4.831-10.241,2.969-12.977-0.35
		c-2.909,4.542-10.702,4.365-11.11-1.571c-0.114-1.629-0.114-4.771-0.114-5.76c-0.119-1.86,2.559-1.979,2.675-0.177
		c0.115,0.989,0.115,4.192,0.173,5.763c0.117,1.571,0.816,2.211,2.562,2.155c4.596-0.061,4.419-4.834,4.071-7.973
		c-0.175-1.806,2.675-2.155,2.732-0.292c0,0,0.177,1.567,0.117,4.188C221.031,67.961,226.442,72.39,230.747,67.674"/>
	<path fill="#524E4C" d="M243.424,71.976c-1.278,0-1.453-1.044-1.397-2.033c0.06-2.734-0.638-6.171-2.907-6.113
		c-2.268,0-4.422,3.666-6.4,5.705c-1.22,1.34-3.256-0.581-1.977-1.86c1.688-1.75,2.791-3.494,4.13-4.776
		c2.677-2.558,6.633-2.441,8.552,0.874c1.571-2.676,4.247-3.258,5.702-3.258c2.211-0.058,4.13,0.989,5.235,3.142
		c0.815-1.57,2.213-2.676,4.713-2.791c6.343-0.116,9.308,8.67,15.592,8.73c1.63,0,3.025-0.642,4.188-1.921
		c1.282-1.281,3.26,0.523,2.038,1.86c-4.829,5.297-10.88,2.329-15.185-1.802c-3.143-2.914-8.786-7.857-9.718,0.112
		c-0.116,0.935-0.116,1.924-0.231,2.91c-0.059,0.874-0.757,1.221-1.397,1.221c-0.813,0-1.395-0.578-1.337-1.394
		c0.231-5.003-2.329-7.393-3.84-7.331c-0.697,0-4.366,0.578-4.421,6.691C244.764,70.932,244.764,71.976,243.424,71.976"/>
	<path fill="#524E4C" d="M297.638,67.674c1.223-1.281,3.198,0.523,1.979,1.86c-4.308,4.89-12.917,4.831-15.069,0.932
		c-0.872-1.571,1.571-2.91,2.386-1.105c0.176,0.348,0.756,0.813,1.455,0.871h0.406c0.641-0.058,1.281-0.463,1.687-1.452
		c1.34-3.61-3.024-6.053-5.876-6.576c-0.581,2.5-1.861,5.236-3.781,7.331c-1.221,1.397-3.199-0.466-1.978-1.86
		c1.688-1.805,3.025-4.542,3.258-6.807c0.114-1.166,1.106-1.517,2.095-1.458c2.967,0.118,6.343,1.687,8.085,4.073
		c1.281,1.805,1.979,4.131,0.526,6.518C294.319,70.117,296.125,69.303,297.638,67.674"/>
	<path fill="#524E4C" d="M24.508,76.646c-10.604,0-14.692-10.195-15.382-14.326c-0.752-4.508-0.758-6.874-0.762-9.168v-0.209
		c-0.013-5.349,0.312-16.793,0.602-25.322c-5.939,4.38-6.083,8.344-6.189,11.399c-0.018,0.425-0.031,0.833-0.058,1.218
		c-0.051,0.749-0.708,1.336-1.451,1.261c-0.75-0.049-1.315-0.7-1.264-1.449c0.026-0.356,0.038-0.732,0.053-1.128
		c0.132-3.712,0.326-9.096,9.026-14.679c0.134-3.741,0.247-6.454,0.295-7.042c0.035-0.411,0.036-0.914,0.042-1.49
		C9.448,12.143,9.5,5.498,16.136,1.491c3.576-2.161,8.084-1.958,11.486,0.512c3.096,2.25,4.427,5.812,3.56,9.523
		c-1.403,6.009-5.171,7.646-10.882,10.123c-1.748,0.758-3.727,1.617-5.932,2.722c-0.949,0.477-1.817,0.949-2.617,1.42
		c-0.3,8.497-0.682,21.177-0.668,27.146l0.001,0.208c0.004,2.182,0.01,4.44,0.725,8.726c0.607,3.642,4.322,12.879,14.073,11.991
		c8.757-0.818,14.332-6.538,14.913-15.304c0.43-6.414-2.521-11.416-8.764-14.864c-5.4-2.983-9.227-4.276-13.311-5.3l-0.852-0.206
		c-0.557-0.139-1.717-0.417-1.572-1.634c0.042-0.365,0.286-1.212,1.592-1.212c2.947,0,3.453-1.039,3.573-1.82
		c0.376-2.398-1.008-3.321-3.486-4.753c-0.708-0.405-1.437-0.828-2.102-1.316c-0.605-0.449-0.732-1.299-0.287-1.904
		c0.445-0.604,1.296-0.735,1.902-0.286c0.542,0.399,1.176,0.764,1.846,1.151c2.318,1.336,5.495,3.17,4.814,7.527
		c-0.123,0.799-0.485,1.872-1.483,2.723c3.18,0.98,6.478,2.326,10.681,4.646c7.25,4.006,10.669,9.868,10.165,17.43
		c-0.668,10.062-7.328,16.896-17.377,17.827C25.577,76.62,25.035,76.646,24.508,76.646 M21.485,2.724
		c-1.364,0-2.724,0.364-3.94,1.099c-5.334,3.22-5.376,8.451-5.404,11.914c-0.005,0.645-0.013,1.215-0.049,1.681
		c-0.032,0.396-0.116,2.349-0.223,5.19c0.411-0.223,0.837-0.446,1.28-0.666c2.27-1.143,4.289-2.017,6.07-2.789
		c5.475-2.375,8.225-3.567,9.312-8.245c0.621-2.65-0.295-5.094-2.508-6.703C24.667,3.218,23.079,2.724,21.485,2.724"/>
	<path fill="#F2B6C3" d="M36.354,57.381c0,1.044-0.839,1.886-1.885,1.886c-1.043,0-1.885-0.842-1.885-1.886
		c0-1.036,0.842-1.887,1.885-1.887C35.515,55.495,36.354,56.345,36.354,57.381"/>
	<path fill="#524E4C" d="M106.246,73.496c-2.56,0-4.989-1.013-7.044-2.945c-3.308-3.11-4.945-8.572-0.714-13.224
		c1.212-1.334,2.513-2.161,3.739-2.764c-0.169-0.242-0.329-0.485-0.472-0.72c-1.228-2.014-1.422-4.157-0.525-5.888
		c0.774-1.492,2.274-2.45,4.013-2.565c1.807-0.125,3.555,0.647,4.597,2.06c0.955,1.293,1.172,2.896,0.596,4.395
		c-0.81,2.098-2.252,3.081-3.807,3.798c1.903,2.058,4.231,4.157,5.853,5.621l0.791,0.718c0.768,0.697,1.425,1.293,2.014,1.82
		c1.148-2.65,1.001-5.437-0.401-8.656c-0.298-0.688,0.016-1.493,0.705-1.791c0.683-0.298,1.487,0.015,1.789,0.706
		c1.829,4.203,1.85,8.022,0.042,11.572c1.633,1.325,3.094,2.276,6.021,4.059c0.642,0.394,0.846,1.227,0.456,1.869
		c-0.391,0.642-1.227,0.848-1.869,0.454c-2.915-1.773-4.477-2.795-6.073-4.064c-0.321,0.419-0.665,0.833-1.04,1.244
		c-2.437,2.688-5.298,4.174-8.278,4.293C106.507,73.493,106.378,73.496,106.246,73.496 M103.964,56.753
		c-1.186,0.526-2.371,1.2-3.466,2.404c-3.211,3.535-1.704,7.278,0.564,9.411c1.617,1.516,3.483,2.285,5.468,2.198
		c2.23-0.09,4.437-1.264,6.369-3.402c0.357-0.391,0.683-0.781,0.978-1.177c-0.701-0.619-1.488-1.331-2.436-2.193l-0.784-0.712
		C108.7,61.515,106.037,59.114,103.964,56.753 M105.62,48.097c-0.065,0-0.132,0.003-0.198,0.009
		c-0.794,0.05-1.441,0.451-1.773,1.103c-0.451,0.862-0.293,2.034,0.427,3.217c0.207,0.333,0.447,0.683,0.717,1.045
		c1.642-0.681,2.568-1.219,3.103-2.604c0.322-0.839-0.016-1.489-0.248-1.802C107.198,48.451,106.45,48.097,105.62,48.097"/>
</g>
</svg>
